<svg xmlns="http://www.w3.org/2000/svg" viewBox="0 0 135 135"><defs><style>.cls-1{fill:#fff;}</style></defs><g id="Layer_2" data-name="Layer 2"><g id="Graphic_Elements" data-name="Graphic Elements"><circle cx="67.5" cy="67.5" r="67.5"/><path class="cls-1" d="M49.18,38.68a35,35,0,0,1,7.38.71,16.05,16.05,0,0,1,5.72,2.34A10.93,10.93,0,0,1,66,46a15.26,15.26,0,0,1,1.3,6.64,12.42,12.42,0,0,1-1.94,7.13,14.13,14.13,0,0,1-5.78,4.67,13.48,13.48,0,0,1,7.78,5.27,15.77,15.77,0,0,1,2.56,9.08,15.66,15.66,0,0,1-1.65,7.42,14.54,14.54,0,0,1-4.48,5.13,19.65,19.65,0,0,1-6.44,2.93,28.85,28.85,0,0,1-7.39,1H22.5V38.68ZM47.57,61.54A9,9,0,0,0,53.05,60c1.43-1.05,2.13-2.77,2.13-5.15a6.62,6.62,0,0,0-.7-3.24,5.05,5.05,0,0,0-1.92-2,7.52,7.52,0,0,0-2.74-1,16.71,16.71,0,0,0-3.2-.28H35V61.54Zm.69,24.09a15.7,15.7,0,0,0,3.49-.36,8.32,8.32,0,0,0,2.94-1.2,6,6,0,0,0,2-2.26,7.75,7.75,0,0,0,.75-3.67c0-2.91-.82-5-2.46-6.24A10.48,10.48,0,0,0,48.51,70H35V85.63Z"/><path class="cls-1" d="M87.65,85.44c1.68,1.64,4.12,2.47,7.28,2.47a10,10,0,0,0,5.87-1.72,7.21,7.21,0,0,0,3-3.63h9.91c-1.59,4.93-4,8.46-7.31,10.58a21.3,21.3,0,0,1-11.86,3.18,23.58,23.58,0,0,1-8.74-1.55,18.56,18.56,0,0,1-6.62-4.4A20.31,20.31,0,0,1,75,83.54a25,25,0,0,1-1.47-8.74,24.09,24.09,0,0,1,1.51-8.57A19.88,19.88,0,0,1,86,54.8a21.34,21.34,0,0,1,8.55-1.67,19.35,19.35,0,0,1,9.1,2A18,18,0,0,1,110,60.59a22.36,22.36,0,0,1,3.61,7.77,29.3,29.3,0,0,1,.78,9.12H84.86C84.86,80.72,86,83.79,87.65,85.44Zm12.93-21.53c-1.34-1.48-3.6-2.28-6.37-2.28a9.66,9.66,0,0,0-4.48.92,9,9,0,0,0-2.85,2.26,8.15,8.15,0,0,0-1.51,2.88,13.3,13.3,0,0,0-.51,2.7h18.31A11,11,0,0,0,100.58,63.91Z"/><rect class="cls-1" x="82.56" y="42.47" width="22.94" height="5.59"/></g></g></svg>