<svg xmlns="http://www.w3.org/2000/svg" viewBox="0 0 135 135"><defs><style>.cls-1{fill:#7bd568;}.cls-2{fill:#010201;}</style></defs><g id="Layer_2" data-name="Layer 2"><g id="Graphic_Elements" data-name="Graphic Elements"><path class="cls-1" d="M67.5,0A67.5,67.5,0,1,0,135,67.5,67.5,67.5,0,0,0,67.5,0Zm31,97.36a4.21,4.21,0,0,1-5.79,1.4c-15.85-9.69-35.8-11.88-59.3-6.51a4.21,4.21,0,0,1-1.87-8.2c25.71-5.88,47.77-3.35,65.56,7.52A4.22,4.22,0,0,1,98.46,97.36ZM106.72,79a5.27,5.27,0,0,1-7.24,1.73c-18.14-11.15-45.8-14.38-67.26-7.86a5.26,5.26,0,1,1-3.06-10.07c24.51-7.44,55-3.84,75.82,9A5.27,5.27,0,0,1,106.72,79Zm.71-19.14C85.67,46.92,49.78,45.73,29,52A6.31,6.31,0,0,1,25.34,40c23.85-7.24,63.48-5.84,88.53,9a6.31,6.31,0,0,1-6.44,10.86Z"/><path class="cls-2" d="M98.46,97.36a4.21,4.21,0,0,1-5.79,1.4c-15.85-9.69-35.8-11.88-59.3-6.51a4.21,4.21,0,0,1-1.87-8.2c25.71-5.88,47.77-3.35,65.56,7.52A4.22,4.22,0,0,1,98.46,97.36Z"/><path class="cls-2" d="M106.72,79a5.27,5.27,0,0,1-7.24,1.73c-18.14-11.15-45.8-14.38-67.26-7.86a5.26,5.26,0,1,1-3.06-10.07c24.51-7.44,55-3.84,75.82,9A5.27,5.27,0,0,1,106.72,79Z"/><path class="cls-2" d="M107.43,59.84C85.67,46.92,49.78,45.73,29,52A6.31,6.31,0,0,1,25.34,40c23.85-7.24,63.48-5.84,88.53,9a6.31,6.31,0,0,1-6.44,10.86Z"/></g></g></svg>